<svg width="31" height="20" viewBox="0 0 31 20" fill="none" xmlns="http://www.w3.org/2000/svg">
<path fill-rule="evenodd" clip-rule="evenodd" d="M9.85857 8.57502V12.0025H15.4567C15.2337 13.4714 13.7599 16.3214 9.85857 16.3214C6.48981 16.3214 3.74031 13.4965 3.74031 10.0063C3.74031 6.51601 6.48981 3.69115 9.85857 3.69115C11.7783 3.69115 13.0539 4.51977 13.7847 5.23541L16.4722 2.61143C14.7507 0.979284 12.5214 0 9.85857 0C4.40911 0 0 4.46955 0 9.99372C0 15.5179 4.40911 19.9874 9.85857 19.9874C15.5557 19.9874 19.3208 15.9322 19.3208 10.2197C19.3208 9.56686 19.2465 9.06466 19.1598 8.56246H9.85857V8.57502Z" fill="white"/>
<path fill-rule="evenodd" clip-rule="evenodd" d="M31 8.57493H28.1762V5.7124H25.3648V8.57493H22.5409V11.4249H25.3648V14.2874H28.1762V11.4249H31V8.57493Z" fill="white"/>
</svg>
