<svg width="26" height="14" viewBox="0 0 26 14" fill="none" xmlns="http://www.w3.org/2000/svg">
<path d="M25.7989 12.5896C25.7555 12.5076 25.7555 12.4666 25.7121 12.4256C25.2777 11.6464 24.4091 10.7032 23.1496 9.596L23.1061 9.55499C22.5415 9.02188 22.1506 8.69381 22.0203 8.48877C21.7597 8.1607 21.6728 7.79162 21.8466 7.46355C21.9334 7.2175 22.3678 6.64338 23.0627 5.7822C23.4101 5.33111 23.7142 4.96203 23.9313 4.71598C25.4949 2.74757 26.1464 1.51732 25.9727 0.984205L25.8858 0.861179C25.8424 0.779162 25.7121 0.697145 25.4515 0.656136C25.2343 0.574119 24.9303 0.57412 24.5828 0.615128L20.6739 0.656136C20.587 0.656136 20.5002 0.656136 20.4133 0.656136C20.3264 0.656136 20.283 0.697145 20.2396 0.697145C20.1961 0.697145 20.1961 0.738154 20.1527 0.738154L20.1093 0.779162C20.0658 0.820171 20.0224 0.861179 19.979 0.902188C19.9355 0.984205 19.8921 1.02521 19.8487 1.10723C19.4144 2.13244 18.9366 3.07564 18.4154 3.97783C18.0679 4.51094 17.7639 4.96203 17.5033 5.33111C17.2427 5.70019 16.9821 5.98725 16.8084 6.19229C16.6347 6.35632 16.4609 6.52036 16.2872 6.64338C16.1135 6.76641 16.0266 6.80742 15.9397 6.76641C15.8529 6.76641 15.766 6.7254 15.7226 6.7254C15.5923 6.64338 15.5054 6.56137 15.4186 6.39733C15.3317 6.27431 15.2883 6.11027 15.2448 5.90523C15.158 5.70019 15.158 5.53615 15.158 5.41313C15.158 5.24909 15.158 5.08506 15.158 4.798C15.158 4.55195 15.158 4.34691 15.158 4.26489C15.158 3.93682 15.158 3.60875 15.158 3.19867C15.158 2.82959 15.2014 2.50152 15.2014 2.29648C15.2014 2.09144 15.2014 1.84538 15.2014 1.59933C15.2014 1.35328 15.2014 1.14824 15.158 1.02521C15.1145 0.902188 15.0711 0.738154 15.0277 0.615128C14.9842 0.492102 14.8539 0.369077 14.7671 0.328068C14.6368 0.246051 14.5065 0.205043 14.3327 0.164034C13.855 0.0820169 13.2469 0 12.5086 0C10.8147 0 9.77232 0.082017 9.29457 0.28706C9.12084 0.369077 8.94711 0.492102 8.77338 0.656136C8.59964 0.861179 8.59965 0.943196 8.68651 0.943196C9.2077 1.02521 9.59859 1.18925 9.81576 1.47631L9.90262 1.64034C9.94605 1.76337 10.0329 1.9274 10.0764 2.21446C10.1198 2.50152 10.1632 2.78858 10.2066 3.15766C10.2501 3.77279 10.2501 4.3059 10.2066 4.75699C10.1632 5.20808 10.1198 5.53615 10.0764 5.7822C10.0329 6.02825 9.98949 6.2333 9.90262 6.39733C9.81576 6.56137 9.77232 6.64338 9.72889 6.68439C9.68546 6.7254 9.68546 6.7254 9.64203 6.76641C9.51173 6.80742 9.42486 6.84843 9.29457 6.84843C9.16427 6.84843 9.03397 6.80742 8.81681 6.68439C8.64308 6.56137 8.46935 6.39733 8.25218 6.19229C8.07845 5.98725 7.86129 5.70019 7.6007 5.33111C7.3401 4.96203 7.12294 4.51094 6.86234 4.01884L6.64518 3.64976C6.51488 3.40371 6.34115 3.07564 6.08056 2.62455C5.81996 2.17345 5.64623 1.72236 5.4725 1.31227C5.38564 1.14824 5.29877 0.984205 5.16847 0.902188L5.08161 0.861179C5.03818 0.820171 4.95131 0.779162 4.86445 0.738154C4.77758 0.697145 4.64728 0.656136 4.56042 0.656136L0.868651 0.697145C0.477758 0.697145 0.217163 0.779162 0.0868651 0.943196L0.0434326 1.02521C0 1.06622 0 1.14824 0 1.23026C0 1.31227 0.0434326 1.4353 0.0868651 1.55832C0.608056 2.74757 1.21611 3.89581 1.8676 5.04405C2.51909 6.15128 3.04028 7.05347 3.51804 7.75061C3.99579 8.44776 4.47355 9.06289 4.95131 9.67802C5.42907 10.2931 5.77653 10.6622 5.90683 10.8263C6.08056 10.9903 6.16742 11.1133 6.29772 11.1953L6.64518 11.4824C6.86234 11.6874 7.16637 11.9335 7.6007 12.2205C8.03502 12.5076 8.46935 12.7947 8.99054 13.0817C9.51173 13.3688 10.0764 13.5738 10.7713 13.7379C11.4662 13.9019 12.1177 13.9839 12.7257 13.9429H14.2893C14.5933 13.9019 14.8539 13.8199 14.9842 13.6558L15.0277 13.5738C15.0711 13.5328 15.1145 13.4508 15.1145 13.3278C15.158 13.2047 15.158 13.1227 15.158 12.9587C15.158 12.5896 15.158 12.2616 15.2448 11.9745C15.3317 11.6874 15.3751 11.4414 15.462 11.3184C15.5489 11.1543 15.6357 11.0313 15.766 10.9493C15.8529 10.8673 15.9397 10.7852 15.9832 10.7442C16.0266 10.7032 16.07 10.7032 16.07 10.7032C16.2872 10.6212 16.5478 10.7032 16.8518 10.9083C17.1559 11.1133 17.4165 11.3594 17.677 11.6464C17.9376 11.9335 18.2417 12.2616 18.5891 12.6306C18.9366 12.9997 19.2841 13.2868 19.5446 13.4508L19.8052 13.6148C19.979 13.6969 20.2396 13.8199 20.5002 13.9019C20.8042 13.9839 21.0214 14.0249 21.2385 13.9839L24.7131 13.9429C25.0606 13.9429 25.3212 13.9019 25.4949 13.7789C25.6686 13.6558 25.7989 13.5738 25.8424 13.4098C25.8858 13.2458 25.8858 13.1227 25.8424 12.9587C25.8858 12.7537 25.8424 12.6306 25.7989 12.5896Z" fill="white"/>
</svg>
