<svg width="100" height="100" viewBox="0 0 100 100" fill="none" xmlns="http://www.w3.org/2000/svg">
<path d="M76.9 49.9C76.7 49.3 76.1 49 75.5 49H58.2L68.2 8.40003C68.4 7.60003 67.9 6.80003 67.1 6.60003C66.6 6.50003 66.1 6.60003 65.7 7.00003L23.4 49.4C22.8 50 22.8 50.9 23.4 51.5C23.7 51.8 24.1 51.9 24.5 51.9H41.8L31.8 92.5C31.6 93.3 32.1 94.1 32.9 94.3C33.4 94.4 33.9 94.3 34.3 93.9L76.6 51.5C77 51.1 77.1 50.5 76.9 49.9ZM36 88.1L45.2 50.9C45.4 50.1 44.9 49.3 44.1 49.1C44 49.1 43.9 49.1 43.7 49.1H28.1L64 12.9L54.9 50.1C54.7 50.9 55.2 51.7 56 51.9C56.1 51.9 56.2 51.9 56.4 51.9H72L36 88.1Z" fill="white"/>
<path d="M71.1 68.9002C70.5 68.3002 69.5 68.4002 69 69.0002C68.5 69.6002 68.5 70.5002 69 71.0002L81 83.0002C81.6 83.6002 82.6 83.5002 83.1 82.9002C83.6 82.3002 83.6 81.4002 83.1 80.9002L71.1 68.9002Z" fill="#B62532"/>
<path d="M28 30.5002C28.8 30.5002 29.5 29.8002 29.5 29.0002C29.5 28.6002 29.3 28.2002 29.1 27.9002L17.1 15.9002C16.5 15.3002 15.5 15.4002 15 16.0002C14.5 16.6002 14.5 17.5002 15 18.0002L27 30.0002C27.2 30.3002 27.6 30.5002 28 30.5002Z" fill="#B62532"/>
<path d="M68.4 29.6C69 30.2 69.9 30.2 70.5 29.6L82.5 17.6C83.1 17 83 16 82.4 15.5C81.8 15 80.9 15 80.4 15.5L68.4 27.5C67.9 28 67.9 29 68.4 29.6Z" fill="#B62532"/>
<path d="M27.4 69.3999L15.4 81.3999C14.8 81.9999 14.8 82.8999 15.3 83.4999C15.8 84.0999 16.8 84.0999 17.4 83.5999C17.4 83.5999 17.5 83.5999 17.5 83.4999L29.5 71.4999C30.1 70.8999 30 69.8999 29.4 69.3999C28.9 68.8999 28 68.8999 27.4 69.3999Z" fill="#B62532"/>
<path d="M18.5 65C19.8807 65 21 63.8807 21 62.5C21 61.1193 19.8807 60 18.5 60C17.1193 60 16 61.1193 16 62.5C16 63.8807 17.1193 65 18.5 65Z" fill="#B62532"/>
<path d="M9.5 58C10.8807 58 12 56.8807 12 55.5C12 54.1193 10.8807 53 9.5 53C8.11929 53 7 54.1193 7 55.5C7 56.8807 8.11929 58 9.5 58Z" fill="#B62532"/>
<path d="M89.5 45C90.8807 45 92 43.8807 92 42.5C92 41.1193 90.8807 40 89.5 40C88.1193 40 87 41.1193 87 42.5C87 43.8807 88.1193 45 89.5 45Z" fill="#B62532"/>
<path d="M31.5 20C32.8807 20 34 18.8807 34 17.5C34 16.1193 32.8807 15 31.5 15C30.1193 15 29 16.1193 29 17.5C29 18.8807 30.1193 20 31.5 20Z" fill="#B62532"/>
</svg>
